<?xml version="1.0" encoding="UTF-8"?>
<svg id="Capa_1" data-name="Capa 1" xmlns="http://www.w3.org/2000/svg" viewBox="0 0 25 25">
  <defs>
    <style>
      .cls-1 {
        fill: #338def;
      }
    </style>
  </defs>
  <path class="cls-1" d="m14.03,19.32l1.41.08v1.98h-5.89v-1.88l.82-.07c.44-.05.72-.2.72-.79v-6.88c0-.55-.15-.72-.62-.72l-.86-.05v-2.05h4.43v10.39h0Zm-1.73-15.69c1.09,0,1.88.82,1.88,1.85s-.79,1.81-1.9,1.81-1.88-.77-1.88-1.81.74-1.85,1.9-1.85Zm.2,21.37C5.61,25,0,19.39,0,12.5S5.61,0,12.5,0s12.5,5.61,12.5,12.5-5.61,12.5-12.5,12.5Zm0-22.66C6.9,2.34,2.34,6.9,2.34,12.5s4.56,10.16,10.16,10.16,10.16-4.56,10.16-10.16S18.1,2.34,12.5,2.34Z"/>
</svg>